<?xml version="1.0" encoding="UTF-8" standalone="no"?>
<!-- Created with Inkscape (http://www.inkscape.org/) -->

<svg
   version="1.1"
   id="svg1"
   width="475.97266"
   height="400.54666"
   viewBox="0 0 475.97266 400.54666"
   xmlns="http://www.w3.org/2000/svg"
   xmlns:svg="http://www.w3.org/2000/svg">
  <defs
     id="defs1" />
  <path
     style="fill:#276f49;fill-opacity:1;stroke-width:0.551832"
     d="m 512,265.13672 c -3.23534,-0.146 -6.45701,1.08826 -7.84961,3.78125 -1.33462,2.58087 -1.91566,9.60274 -2.52148,30.45117 -0.61942,21.31655 -1.78296,44.10902 -3.07032,60.14844 -1.18966,14.82229 -2.96437,31.39226 -3.63476,33.93945 -0.92963,3.5322 -4.20272,6.3457 -7.38086,6.3457 -3.21799,0 -7.23913,-3.50736 -8.02344,-6.99804 -1.48425,-6.60591 -2.52014,-33.29211 -3.29687,-84.88282 l -0.57422,-38.07617 -1.77735,-1.50195 c -5.34673,-4.51645 -10.40055,-4.04902 -13.08398,1.21094 -3.21719,6.30621 -11.013,40.30255 -13.85547,60.42187 -1.51214,10.70333 -2.17775,28.66218 -1.56445,42.19922 0.5968,13.1727 2.04334,21.30684 5.78906,32.54688 7.75428,23.26874 21.92415,40.74071 43.42773,53.55273 2.65772,1.58349 5.20301,3.40955 5.65625,4.05664 1.03326,1.47518 1.02387,4.01427 -0.0391,11.69141 -3.08816,22.3045 -3.76183,29.57332 -5.72851,61.80468 -0.61114,10.01576 -1.22336,20.04438 -1.36133,22.28516 -0.47156,7.65866 -1.73613,6.46084 -7.00977,-6.64062 -18.2292,-45.28734 -45.60321,-80.9073 -82.43554,-107.26563 -35.23084,-25.21223 -77.70156,-39.97154 -115.70118,-40.20898 -8.51091,-0.0532 -9.31151,0.0283 -10.75976,1.0957 -3.15906,2.32829 -3.22465,2.76932 -3.18555,21.74805 0.0395,19.1352 0.80129,27.23524 4.12695,43.87109 6.93648,34.69818 22.32496,68.52161 44.68946,98.22656 23.33415,30.99286 55.93822,57.83752 90.17968,74.25196 24.86372,11.919 56.18367,20.49733 80.32227,22 7.40128,0.46074 11.68084,0.58811 18.66211,0.39062 6.98127,0.19749 11.26083,0.0701 18.66211,-0.39062 24.1386,-1.50267 55.45856,-10.081 80.32226,-22 34.24147,-16.41444 66.84554,-43.2591 90.17969,-74.25196 22.3645,-29.70495 37.75102,-63.52838 44.6875,-98.22656 3.32566,-16.63585 4.08945,-24.73589 4.12891,-43.87109 0.0391,-18.97873 -0.0265,-19.41976 -3.18555,-21.74805 -1.44825,-1.06738 -2.24885,-1.14888 -10.75976,-1.0957 -37.99962,0.23744 -80.47034,14.99675 -115.70118,40.20898 -36.83233,26.35833 -64.20634,61.97829 -82.43554,107.26563 -5.27364,13.10146 -6.53821,14.29928 -7.00977,6.64062 -0.13797,-2.24078 -0.75019,-12.2694 -1.36133,-22.28516 -1.96668,-32.23136 -2.64035,-39.50018 -5.72851,-61.80468 -1.06293,-7.67714 -1.07232,-10.21623 -0.0391,-11.69141 0.45324,-0.64709 2.99853,-2.47315 5.65625,-4.05664 21.50358,-12.81202 35.67345,-30.28399 43.42773,-53.55273 3.74572,-11.24004 5.19226,-19.37418 5.78906,-32.54688 0.6133,-13.53704 -0.0523,-31.49589 -1.56445,-42.19922 -2.84247,-20.11932 -10.63828,-54.11566 -13.85547,-60.42187 -2.68343,-5.25996 -7.73725,-5.72739 -13.08398,-1.21094 l -1.77735,1.50195 -0.57422,38.07617 c -0.77673,51.59071 -1.81262,78.27691 -3.29687,84.88282 -0.78431,3.49068 -4.80545,6.99804 -8.02344,6.99804 -3.17814,0 -6.45123,-2.8135 -7.38086,-6.3457 -0.67039,-2.54719 -2.4451,-19.11716 -3.63476,-33.93945 -1.28736,-16.03942 -2.4509,-38.83189 -3.07032,-60.14844 -0.60582,-20.84843 -1.18686,-27.8703 -2.52148,-30.45117 -1.3926,-2.69299 -4.61427,-3.92725 -7.84961,-3.78125 z m -32.77913,384.31039 c 0.69089,-0.26512 0.87242,-1.21432 0.87067,-4.55261 -0.009,-16.53913 -9.95675,-45.17598 -21.98073,-63.27462 -8.83992,-13.30595 -21.76832,-25.7558 -37.17313,-35.79717 -13.81007,-9.00186 -33.76424,-15.50369 -51.77716,-16.87098 -7.97139,-0.60508 -9.63213,-1.39438 -11.55015,-5.48944 -1.13721,-2.42798 -1.20493,-2.94392 -0.58335,-4.44453 0.38676,-0.93374 1.476,-2.34796 2.42051,-3.14271 1.71564,-1.44362 1.72451,-1.44471 9.17161,-1.12145 20.87064,0.90591 45.06162,7.95094 62.04965,18.07045 14.27329,8.50238 30.41782,22.54649 40.98934,35.65659 4.53053,5.61847 6.83898,7.72577 7.8075,7.12719 1.26998,-0.78489 -9.27606,-28.47933 -15.88335,-41.71046 -16.45332,-32.94789 -41.50286,-61.51561 -71.77967,-81.86104 -25.01119,-16.80704 -49.02077,-26.62108 -78.36209,-32.03091 -6.43136,-1.18579 -19.43792,-2.53525 -24.50401,-2.54234 l -1.60299,-0.002 0.34862,14.48558 c 0.38543,16.01507 1.47555,26.04172 4.28409,39.404 6.8887,32.77452 22.93189,66.65421 44.38221,93.72545 11.91379,15.03571 31.08216,33.30394 47.49504,45.2647 21.59314,15.73581 52.81404,30.28108 78.59166,36.61447 10.08388,2.47754 14.94347,3.19902 16.78573,2.49207 z m 65.55825,0 c -0.69089,-0.26512 -0.87242,-1.21432 -0.87067,-4.55261 0.009,-16.53913 9.95675,-45.17598 21.98073,-63.27462 8.83992,-13.30595 21.76832,-25.7558 37.17313,-35.79717 13.81007,-9.00186 33.76424,-15.50369 51.77716,-16.87098 7.97139,-0.60508 9.63213,-1.39438 11.55015,-5.48944 1.13721,-2.42798 1.20493,-2.94392 0.58335,-4.44453 -0.38676,-0.93374 -1.476,-2.34796 -2.42051,-3.14271 -1.71564,-1.44362 -1.72451,-1.44471 -9.17161,-1.12145 -20.87064,0.90591 -45.06162,7.95094 -62.04965,18.07045 -14.27329,8.50238 -30.41782,22.54649 -40.98934,35.65659 -4.53053,5.61847 -6.83898,7.72577 -7.8075,7.12719 -1.26998,-0.78489 9.27606,-28.47933 15.88335,-41.71046 16.45332,-32.94789 41.50286,-61.51561 71.77967,-81.86104 25.01119,-16.80704 49.02077,-26.62108 78.36209,-32.03091 6.43136,-1.18579 19.43792,-2.53525 24.50401,-2.54234 l 1.60299,-0.002 -0.34862,14.48558 c -0.38543,16.01507 -1.47555,26.04172 -4.28409,39.404 -6.8887,32.77452 -22.93189,66.65421 -44.38221,93.72545 -11.91379,15.03571 -31.08216,33.30394 -47.49504,45.2647 -21.59314,15.73581 -52.81404,30.28108 -78.59166,36.61447 -10.08388,2.47754 -14.94347,3.19902 -16.78573,2.49207 z"
     id="path2"
     transform="translate(-274.01367,-265.12515)" />
  <path
     style="fill:#9dc422;fill-opacity:1;stroke-width:0.125"
     d="m 474.5,649.4906 c -6.26429,-0.87464 -18.52673,-4.03218 -27.5625,-7.09726 -23.29809,-7.90309 -47.29448,-20.25523 -64.875,-33.39439 -15.83596,-11.83534 -33.76182,-29.00373 -45.22234,-43.31145 -20.66797,-25.80262 -36.64573,-58.65149 -44.01941,-90.5 -2.95102,-12.74611 -4.39134,-23.57937 -4.94419,-37.1875 -0.14237,-3.50433 -0.5002,-17.33317 -0.50105,-19.36349 l -5.1e-4,-1.2385 2.50481,0.0837 c 6.86797,0.22947 17.73547,1.4425 24.93269,2.78298 25.44348,4.73881 48.01662,13.52113 69.9375,27.20992 15.03184,9.38684 27.29629,19.18055 39.5,31.5425 14.01456,14.19629 25.71184,29.84914 35.34352,47.29539 3.9995,7.24444 7.19885,14.05296 11.30705,24.0625 4.36635,10.63854 8.25512,21.64396 8.64222,24.45799 0.0904,0.65726 -0.13258,0.91238 -0.70382,0.80522 -1.02941,-0.19311 -2.96222,-2.06764 -6.3202,-6.12961 -4.37795,-5.29576 -6.83587,-8.02228 -10.88872,-12.07853 -9.70158,-9.70975 -20.63351,-18.4115 -30.69255,-24.43107 -18.35719,-10.98538 -44.72115,-18.24902 -66.625,-18.35611 -3.18492,-0.0156 -3.35475,0.0234 -4.63884,1.06527 -1.54332,1.25217 -2.84965,3.24519 -3.00652,4.58695 -0.0879,0.75176 0.24312,1.73831 1.23891,3.69251 1.15705,2.27066 2.39626,3.38556 4.43618,3.99113 1.14529,0.34 3.63041,0.69717 6.65777,0.95689 6.91474,0.59321 12.56539,1.52523 19.0625,3.14415 12.7137,3.16795 24.1151,7.99253 33.5625,14.2022 8.24484,5.41925 15.17104,11.05976 22.13101,18.02292 5.92254,5.92525 10.3072,11.22878 14.42265,17.44509 9.96048,15.04515 18.82839,37.97347 21.248,54.9375 0.7639,5.35575 0.90119,10.95861 0.29929,12.21444 -0.0912,0.19017 -0.33396,0.42925 -0.53959,0.53126 -0.51987,0.2579 -3.03011,0.28865 -4.68636,0.0574 z m 74.99999,0 c 6.26429,-0.87464 18.52673,-4.03218 27.5625,-7.09726 23.29809,-7.90309 47.29448,-20.25523 64.875,-33.39439 15.83596,-11.83534 33.76182,-29.00373 45.22234,-43.31145 20.66797,-25.80262 36.64573,-58.65149 44.01941,-90.5 2.95102,-12.74611 4.39134,-23.57937 4.94419,-37.1875 0.14237,-3.50433 0.5002,-17.33317 0.50105,-19.36349 l 5.1e-4,-1.2385 -2.50481,0.0837 c -6.86797,0.22947 -17.73547,1.4425 -24.93269,2.78298 -25.44348,4.73881 -48.01662,13.52113 -69.9375,27.20992 -15.03184,9.38684 -27.29629,19.18055 -39.5,31.5425 -14.01456,14.19629 -25.71184,29.84914 -35.34352,47.29539 -3.9995,7.24444 -7.19885,14.05296 -11.30705,24.0625 -4.36635,10.63854 -8.25512,21.64396 -8.64222,24.45799 -0.0904,0.65726 0.13258,0.91238 0.70382,0.80522 1.02941,-0.19311 2.96222,-2.06764 6.3202,-6.12961 4.37795,-5.29576 6.83587,-8.02228 10.88872,-12.07853 9.70158,-9.70975 20.63351,-18.4115 30.69255,-24.43107 18.35719,-10.98538 44.72115,-18.24902 66.625,-18.35611 3.18492,-0.0156 3.35475,0.0234 4.63884,1.06527 1.54332,1.25217 2.84965,3.24519 3.00652,4.58695 0.0879,0.75176 -0.24312,1.73831 -1.23891,3.69251 -1.15705,2.27066 -2.39626,3.38556 -4.43618,3.99113 -1.14529,0.34 -3.63041,0.69717 -6.65777,0.95689 -6.91474,0.59321 -12.56539,1.52523 -19.0625,3.14415 -12.7137,3.16795 -24.1151,7.99253 -33.5625,14.2022 -8.24484,5.41925 -15.17104,11.05976 -22.13101,18.02292 -5.92254,5.92525 -10.3072,11.22878 -14.42265,17.44509 -9.96048,15.04515 -18.82839,37.97347 -21.248,54.9375 -0.7639,5.35575 -0.90119,10.95861 -0.29929,12.21444 0.0912,0.19017 0.33396,0.42925 0.53959,0.53126 0.51987,0.2579 3.03011,0.28865 4.68636,0.0574 z"
     id="path7"
     transform="translate(-274.01367,-265.12515)" />
</svg>
